Coordinates
version=1
nRows=9
nColumns=24
inDegrees=yes

Units are S.I. units (second, meters, Newtons, ...)
Angles are in degrees.

endheader
time	pelvis_tilt	pelvis_list	pelvis_rotation	pelvis_tx	pelvis_ty	pelvis_tz	hip_flexion_r	hip_adduction_r	hip_rotation_r	knee_angle_r	ankle_angle_r	subtalar_angle_r	mtp_angle_r	hip_flexion_l	hip_adduction_l	hip_rotation_l	knee_angle_l	ankle_angle_l	subtalar_angle_l	mtp_angle_l	lumbar_extension	lumbar_bending	lumbar_rotation
      3.65000000	     65.07580048	      5.07870544	      1.18751249	      0.55897993	      1.05879241	     -0.31014279	      1.13329066	    -13.79938248	      2.60246724	    -60.61629603	    -17.29592986	     -0.82487561	      0.00000000	      2.75242103	     -4.38293152	     11.00766602	    -19.72577187	     -6.53517871	     17.06971143	      0.00000000	      0.00000000	      0.00000000	      0.00000000
      3.66000000	     65.07527807	      5.05067203	      1.13391657	      0.55905497	      1.05898875	     -0.31004429	      1.10010443	    -13.78022700	      2.62317632	    -60.55447327	    -17.31789052	     -0.88836854	      0.00000000	      2.55373870	     -4.29817074	      9.94258146	    -22.13822464	     -6.81261219	     16.82541871	      0.00000000	      0.00000000	      0.00000000	      0.00000000
      3.67000000	     65.06861726	      5.00793897	      1.08629229	      0.55913193	      1.05915750	     -0.30995685	      1.06998976	    -13.74311054	      2.63667703	    -60.48929081	    -17.32948903	     -0.95237121	      0.00000000	      2.36819545	     -4.26933972	      8.87018136	    -24.65404971	     -7.19432913	     16.64975774	      0.00000000	      0.00000000	      0.00000000	      0.00000000
      3.68000000	     65.05673991	      4.94905830	      1.04700681	      0.55924932	      1.05930590	     -0.30987045	      1.03739129	    -13.69015418	      2.64367860	    -60.42176409	    -17.33257613	     -1.01465547	      0.00000000	      2.19695426	     -4.29379579	      7.81777643	    -27.28636070	     -7.64963417	     16.56164397	      0.00000000	      0.00000000	      0.00000000	      0.00000000
      3.69000000	     65.04115374	      4.87407878	      1.01404058	      0.55944749	      1.05948697	     -0.30980468	      0.99918000	    -13.62460004	      2.64814109	    -60.35776063	    -17.32949741	     -1.07425578	      0.00000000	      2.04321890	     -4.36563881	      6.80884048	    -30.05586279	     -8.16765720	     16.56077056	      0.00000000	      0.00000000	      0.00000000	      0.00000000
      3.70000000	     65.02495769	      4.78637133	      0.98088418	      0.55971918	      1.05975863	     -0.30980110	      0.95730264	    -13.55013486	      2.65537863	    -60.30634993	    -17.32293119	     -1.13095657	      0.00000000	      1.91377978	     -4.47744857	      5.86489816	    -32.98365636	     -8.75434865	     16.63544207	      0.00000000	      0.00000000	      0.00000000	      0.00000000
      3.71000000	     65.01251645	      4.69219525	      0.93915362	      0.56000197	      1.06008647	     -0.30984950	      0.91995664	    -13.46988267	      2.66883785	    -60.27533760	    -17.31570537	     -1.18440302	      0.00000000	      1.82050638	     -4.62100474	      5.00669179	    -36.08204992	     -9.42432732	     16.77291262	      0.00000000	      0.00000000	      0.00000000	      0.00000000
      3.72000000	     65.00514097	      4.59692388	      0.88410258	      0.56024622	      1.06029132	     -0.30985170	      0.89944523	    -13.38572925	      2.68723533	    -60.26620332	    -17.31059592	     -1.23325606	      0.00000000	      1.78015905	     -4.78679805	      4.25346705	    -39.34667490	    -10.18965960	     16.96924689	      0.00000000	      0.00000000	      0.00000000	      0.00000000
      3.73000000	     64.99348765	      4.50057489	      0.82049299	      0.56049948	      1.06023339	     -0.30972709	      0.90740407	    -13.29859326	      2.70429847	    -60.27178265	    -17.30996909	     -1.27490170	      0.00000000	      1.81039867	     -4.96385173	      3.62032164	    -42.75405745	    -11.04872955	     17.23594811	      0.00000000	      0.00000000	      0.00000000	      0.00000000
